<?xml version="1.0" standalone="no"?>
<!DOCTYPE svg PUBLIC "-//W3C//DTD SVG 20010904//EN"
 "http://www.w3.org/TR/2001/REC-SVG-20010904/DTD/svg10.dtd">
<svg version="1.0" xmlns="http://www.w3.org/2000/svg"
 width="612.000000pt" height="566.000000pt" viewBox="0 0 612.000000 566.000000"
 preserveAspectRatio="xMidYMid meet">

<g transform="translate(0.000000,566.000000) scale(0.100000,-0.100000)"
fill="#000000" stroke="none">
<path d="M1710 4990 c0 -5 5 -10 11 -10 5 0 7 5 4 10 -3 6 -8 10 -11 10 -2 0
-4 -4 -4 -10z"/>
<path d="M1695 4960 c3 -5 8 -10 11 -10 2 0 4 5 4 10 0 6 -5 10 -11 10 -5 0
-7 -4 -4 -10z"/>
<path d="M1589 4863 c-13 -16 -12 -17 4 -4 16 13 21 21 13 21 -2 0 -10 -8 -17
-17z"/>
<path d="M1520 4845 c13 -14 26 -25 28 -25 3 0 -5 11 -18 25 -13 14 -26 25
-28 25 -3 0 5 -11 18 -25z"/>
<path d="M1556 4847 c3 -10 9 -15 12 -12 3 3 0 11 -7 18 -10 9 -11 8 -5 -6z"/>
<path d="M2011 4474 c0 -11 3 -14 6 -6 3 7 2 16 -1 19 -3 4 -6 -2 -5 -13z"/>
<path d="M1892 4144 c-12 -6 -32 -24 -44 -40 -23 -28 -23 -33 -26 -336 -2
-170 -7 -308 -11 -308 -21 0 -60 55 -76 107 -9 32 -21 72 -26 90 -6 17 -21 42
-34 56 -21 21 -37 25 -110 30 -48 2 -94 3 -104 0 -10 -3 -31 -29 -46 -59 -15
-30 -30 -54 -34 -54 -4 0 -24 -16 -44 -35 -32 -30 -37 -41 -37 -79 0 -62 -14
-94 -61 -136 l-39 -37 0 -80 c0 -68 3 -83 21 -99 17 -16 22 -16 30 -4 8 12 9
10 5 -6 -5 -15 2 -26 26 -44 18 -14 39 -23 47 -22 7 2 10 -1 7 -6 -3 -6 12
-24 34 -42 35 -28 42 -30 55 -17 8 9 12 24 9 34 -5 16 -4 16 11 -2 15 -20 16
-19 21 3 7 24 24 31 24 9 0 -12 18 -35 96 -119 37 -41 43 -58 18 -58 -17 0
-70 -27 -91 -47 -10 -9 -10 -13 0 -17 6 -3 2 -3 -11 0 -15 4 -24 0 -28 -10 -3
-9 -10 -14 -14 -11 -5 3 -19 1 -32 -4 -16 -6 -36 -5 -61 4 -20 7 -37 9 -37 4
0 -5 -4 -9 -9 -9 -4 0 -6 11 -3 25 3 17 -4 34 -22 55 -14 18 -26 36 -26 41 0
5 -7 9 -15 9 -8 0 -15 5 -15 11 0 15 -36 60 -43 53 -3 -3 -8 5 -12 18 -4 13
-14 31 -22 40 -17 19 -47 12 -39 -9 3 -8 2 -11 -3 -8 -5 3 -12 1 -15 -3 -7
-12 40 -53 56 -49 7 1 14 -8 16 -20 2 -15 8 -20 18 -16 11 4 15 0 12 -13 -2
-15 2 -18 20 -17 12 2 22 -2 22 -8 0 -5 -5 -7 -10 -4 -5 3 -10 1 -10 -4 0 -6
5 -11 10 -11 18 0 10 -21 -30 -75 -22 -30 -54 -62 -71 -71 -29 -15 -31 -18
-25 -57 4 -23 18 -58 31 -78 21 -33 106 -99 128 -99 5 0 14 13 20 30 6 17 18
30 25 30 11 0 12 14 7 66 -7 62 -6 66 11 60 27 -8 333 -46 372 -46 17 0 32 -4
32 -10 0 -5 -13 -10 -29 -10 -31 0 -41 -13 -33 -42 3 -13 15 -18 42 -18 34 0
41 -4 63 -42 26 -45 67 -166 67 -198 0 -43 -120 36 -188 123 -17 22 -29 117
-15 117 6 0 13 14 15 30 l5 30 -161 -2 -161 -3 0 -25 c0 -22 5 -25 38 -28 l37
-3 0 -93 c0 -85 2 -94 24 -115 18 -17 25 -36 28 -71 1 -26 0 -46 -5 -43 -8 5
-5 -27 5 -42 3 -6 -1 -19 -9 -30 -15 -19 -15 -19 -8 4 5 15 3 21 -3 17 -6 -3
-14 -21 -18 -38 -3 -18 -10 -39 -14 -48 -5 -8 -21 -40 -36 -70 -15 -30 -53
-98 -85 -151 -32 -53 -63 -108 -68 -122 -7 -18 -18 -27 -33 -27 -17 0 -19 -3
-9 -9 11 -7 11 -9 0 -14 -9 -3 -5 -6 7 -6 19 -1 25 -14 49 -113 14 -62 36
-171 48 -243 12 -71 23 -120 25 -108 4 28 -32 231 -63 356 -30 116 -29 107 -7
107 16 1 16 2 -1 14 -21 16 -19 23 47 132 27 44 35 52 34 33 -1 -13 -6 -29
-11 -36 -5 -7 -6 -17 -2 -23 3 -5 2 -10 -3 -10 -5 0 -14 -12 -21 -27 l-11 -28
22 30 c13 16 24 33 24 37 1 5 2 13 3 19 0 5 6 7 13 3 6 -4 8 -3 4 4 -3 6 2 19
12 29 36 34 71 99 61 114 -7 11 -9 11 -9 1 0 -7 -4 -10 -10 -7 -5 3 -10 11
-10 17 0 6 3 8 7 4 4 -4 20 19 36 51 16 32 26 46 23 31 -4 -16 -1 -28 6 -30 9
-3 9 -6 0 -12 -7 -4 -12 -2 -12 4 0 6 -4 8 -10 5 -5 -3 -10 -11 -10 -16 0 -6
4 -8 9 -5 5 4 11 1 13 -4 2 -6 17 13 34 42 l30 53 -18 75 c-12 52 -17 118 -18
217 l0 142 28 3 c15 2 48 1 73 0 45 -4 46 -4 47 -40 1 -20 13 -60 27 -89 21
-42 39 -61 92 -95 l66 -43 -5 -430 c-2 -236 -1 -484 3 -550 6 -108 7 -101 6
75 -1 107 0 354 1 548 2 345 2 352 22 352 24 0 24 5 10 -280 -6 -113 -12 -425
-14 -695 l-3 -490 -32 2 c-18 0 -49 13 -70 27 -39 27 -57 33 -46 16 3 -5 1
-10 -4 -10 -6 0 -11 -4 -11 -10 0 -5 9 -10 21 -10 13 0 18 4 13 12 -4 7 -3 8
4 4 7 -4 12 -14 12 -22 0 -8 10 -14 23 -15 12 0 16 -3 10 -6 -7 -2 -13 -11
-13 -19 0 -9 3 -13 8 -11 4 3 8 -6 8 -19 1 -13 -2 -24 -8 -24 -5 0 -6 -5 -2
-11 4 -6 30 -9 64 -7 40 2 62 -2 75 -12 16 -13 146 -15 999 -18 540 -1 995 0
1013 3 49 9 91 57 95 107 l3 42 73 1 c40 1 76 6 81 11 5 5 43 245 85 534 42
289 80 539 85 555 14 48 12 -184 -3 -385 -9 -124 -11 -237 -5 -390 4 -118 8
-236 8 -262 l1 -48 58 0 c104 0 93 -22 140 273 23 144 46 296 52 337 5 41 28
197 50 345 22 149 40 275 40 281 0 6 18 16 41 23 30 9 39 16 35 28 -3 8 -9 27
-13 41 -7 26 -8 26 -13 -8 l-5 -35 -65 0 -65 0 -11 113 c-6 62 -13 114 -15
116 -2 2 -77 6 -166 10 l-163 6 0 -125 0 -125 -134 0 -135 0 -6 48 c-10 70
-10 70 -24 9 -11 -52 -15 -57 -39 -58 -27 0 -27 0 -4 -11 l22 -11 0 -554 0
-553 -990 0 -990 0 0 698 0 699 54 12 c68 15 126 53 159 104 58 89 46 199 -43
387 -61 127 -80 195 -80 280 0 63 -25 131 -60 165 l-30 29 0 238 0 238 990 0
990 0 0 -327 c1 -270 3 -324 13 -305 7 12 15 20 18 17 3 -3 23 2 43 10 46 19
90 8 129 -33 32 -34 127 -164 127 -174 0 -5 5 -8 11 -8 13 0 -86 144 -133 191
-45 46 -93 58 -139 35 -18 -9 -34 -16 -36 -16 -10 0 1 22 32 63 l35 46 0 343
c0 323 -1 345 -20 375 -39 65 22 61 -1071 65 -697 2 -1002 0 -1017 -8z m-336
-524 c18 -45 51 -70 64 -50 11 17 40 5 40 -16 0 -9 -11 -27 -25 -40 -20 -19
-25 -33 -25 -72 0 -27 6 -70 14 -95 14 -46 8 -66 -16 -51 -6 4 -8 3 -5 -3 4
-6 -4 -14 -18 -17 -16 -4 -23 -11 -19 -18 5 -8 2 -9 -10 -5 -10 4 -15 3 -11
-3 3 -6 3 -10 -2 -10 -4 -1 -29 -2 -55 -4 -26 -2 -46 0 -43 4 3 5 1 11 -4 14
-5 4 -12 3 -15 -2 -8 -14 8 -30 38 -38 21 -5 27 -4 22 5 -5 8 2 11 22 9 32 -2
147 67 137 83 -4 5 3 9 14 9 11 0 23 -4 26 -10 3 -5 -1 -10 -10 -10 -15 0 -15
-1 0 -16 9 -9 13 -19 10 -22 -3 -4 -10 0 -15 8 -8 13 -10 12 -10 -2 0 -10 -5
-18 -11 -18 -5 0 -7 -4 -4 -10 3 -5 1 -10 -4 -10 -14 0 -14 13 1 28 7 7 8 12
2 12 -15 0 -46 -35 -38 -43 3 -3 -5 -3 -18 -1 -20 5 -21 4 -7 -8 13 -11 14
-15 3 -26 -7 -6 -15 -8 -18 -3 -3 4 -18 6 -33 4 -49 -9 -121 -8 -116 0 3 5 -3
17 -12 27 -9 10 -14 24 -10 29 3 6 2 11 -2 11 -5 0 -18 7 -29 16 -10 8 -13 13
-6 9 6 -3 12 -1 12 5 0 6 5 8 10 5 6 -3 10 1 10 10 0 9 6 15 13 14 30 -5 107
51 107 78 0 7 8 13 18 14 9 0 1 5 -18 10 -77 21 -103 103 -60 197 17 38 22 42
55 42 32 0 37 -4 51 -40z m179 -350 c-3 -5 -11 -10 -16 -10 -6 0 -7 5 -4 10 3
6 11 10 16 10 6 0 7 -4 4 -10z m30 -40 c3 -6 -1 -7 -9 -4 -18 7 -21 14 -7 14
6 0 13 -4 16 -10z m-388 -22 c-3 -8 -6 -5 -6 6 -1 11 2 17 5 13 3 -3 4 -12 1
-19z m-117 2 c0 -5 -5 -10 -11 -10 -5 0 -7 5 -4 10 3 6 8 10 11 10 2 0 4 -4 4
-10z m540 0 c0 -5 -4 -10 -10 -10 -5 0 -10 5 -10 10 0 6 5 10 10 10 6 0 10 -4
10 -10z m-70 -10 c13 -8 13 -10 -2 -10 -9 0 -20 5 -23 10 -8 13 5 13 25 0z
m-210 -40 c0 -5 -5 -10 -11 -10 -5 0 -7 5 -4 10 3 6 8 10 11 10 2 0 4 -4 4
-10z m-210 -10 c0 -5 -4 -10 -10 -10 -5 0 -10 5 -10 10 0 6 5 10 10 10 6 0 10
-4 10 -10z m480 -25 c-6 -7 -8 -21 -4 -31 5 -16 4 -16 -5 -3 -12 18 -3 62 11
53 5 -3 5 -11 -2 -19z m-290 11 c0 -3 -4 -8 -10 -11 -5 -3 -10 -1 -10 4 0 6 5
11 10 11 6 0 10 -2 10 -4z m311 -63 c-8 -15 -10 -11 -9 15 1 26 3 30 10 18 5
-10 5 -23 -1 -33z m-341 33 c0 -2 -8 -10 -17 -17 -16 -13 -17 -12 -4 4 13 16
21 21 21 13z m48 -31 c-3 -3 -9 2 -12 12 -6 14 -5 15 5 6 7 -7 10 -15 7 -18z
m-98 5 c0 -5 -4 -10 -9 -10 -6 0 -13 5 -16 10 -3 6 1 10 9 10 9 0 16 -4 16
-10z m-20 -30 c0 -5 -2 -10 -4 -10 -3 0 -8 5 -11 10 -3 6 -1 10 4 10 6 0 11
-4 11 -10z m199 -93 c0 -7 -5 -2 -11 11 -6 12 -14 22 -18 22 -5 0 -11 8 -14
18 -4 10 4 6 19 -11 14 -15 25 -33 24 -40z m155 -12 c-4 -8 -11 -15 -16 -15
-6 0 -5 6 2 15 7 8 14 15 16 15 2 0 1 -7 -2 -15z m-69 -5 c-3 -5 -12 -10 -18
-10 -7 0 -6 4 3 10 19 12 23 12 15 0z m102 -27 c-3 -10 -5 -4 -5 12 0 17 2 24
5 18 2 -7 2 -21 0 -30z m-137 7 c0 -5 -5 -10 -11 -10 -5 0 -7 5 -4 10 3 6 8
10 11 10 2 0 4 -4 4 -10z m40 -30 c0 -5 -5 -10 -11 -10 -5 0 -7 5 -4 10 3 6 8
10 11 10 2 0 4 -4 4 -10z m47 -12 c-3 -8 -6 -5 -6 6 -1 11 2 17 5 13 3 -3 4
-12 1 -19z m-460 -20 c-3 -8 -6 -5 -6 6 -1 11 2 17 5 13 3 -3 4 -12 1 -19z
m441 -19 c-3 -8 -7 -3 -11 10 -4 17 -3 21 5 13 5 -5 8 -16 6 -23z m-428 -30
c0 -6 -4 -7 -10 -4 -5 3 -10 11 -10 16 0 6 5 7 10 4 6 -3 10 -11 10 -16z m412
-31 c-8 -8 -9 -4 -5 13 4 13 8 18 11 10 2 -7 -1 -18 -6 -23z m118 12 c0 -11
-4 -20 -9 -20 -5 0 -7 9 -4 20 3 11 7 20 9 20 2 0 4 -9 4 -20z m-57 -26 c-4
-12 0 -14 23 -9 l29 6 -30 -16 -30 -15 28 5 c15 3 27 1 27 -4 0 -16 -22 -25
-57 -23 -18 2 -33 -1 -33 -6 0 -5 -7 -9 -15 -9 -8 0 -12 4 -9 9 3 5 -46 8
-108 9 -255 0 -332 3 -303 10 l30 7 -27 1 c-16 0 -28 5 -28 10 0 5 49 6 113 3
61 -3 173 -6 247 -6 113 -1 135 1 136 14 1 23 4 30 9 30 2 0 2 -7 -2 -16z
m-275 -1 c-10 -2 -26 -2 -35 0 -10 3 -2 5 17 5 19 0 27 -2 18 -5z m105 -20
c-7 -2 -19 -2 -25 0 -7 3 -2 5 12 5 14 0 19 -2 13 -5z m-123 -278 c0 -103 0
-105 -20 -93 -18 11 -20 24 -20 105 0 86 1 93 20 93 19 0 20 -7 20 -105z m22
-341 c-8 -15 -9 -15 -15 0 -4 10 -3 15 3 11 6 -3 10 2 11 12 0 10 3 13 5 6 3
-7 1 -20 -4 -29z m-84 -154 c-12 -19 -28 -27 -28 -14 0 6 30 33 38 34 1 0 -3
-9 -10 -20z m-28 -45 c0 -5 -5 -3 -10 5 -5 8 -10 20 -10 25 0 6 5 3 10 -5 5
-8 10 -19 10 -25z m-16 -12 c4 -10 4 -14 0 -10 -4 4 -12 -1 -19 -10 -10 -14
-12 -13 -9 8 3 30 2 29 13 29 5 0 12 -8 15 -17z"/>
<path d="M1458 3583 c7 -3 16 -2 19 1 4 3 -2 6 -13 5 -11 0 -14 -3 -6 -6z"/>
<path d="M1528 3583 c7 -3 16 -2 19 1 4 3 -2 6 -13 5 -11 0 -14 -3 -6 -6z"/>
<path d="M1450 3560 c0 -5 5 -10 10 -10 6 0 10 5 10 10 0 6 -4 10 -10 10 -5 0
-10 -4 -10 -10z"/>
<path d="M1520 3559 c0 -5 5 -7 10 -4 6 3 10 8 10 11 0 2 -4 4 -10 4 -5 0 -10
-5 -10 -11z"/>
<path d="M1414 3281 c0 -11 4 -17 8 -15 4 3 8 12 8 20 0 8 -4 14 -8 14 -4 0
-8 -9 -8 -19z"/>
<path d="M1546 3212 c-3 -4 4 -9 15 -9 23 -2 25 3 4 10 -8 4 -16 3 -19 -1z"/>
<path d="M4292 3874 c-12 -8 -22 -24 -22 -35 0 -12 -10 -23 -25 -29 -17 -6
-25 -17 -25 -32 0 -39 11 -67 25 -62 7 3 15 -2 18 -10 12 -31 27 -15 27 28 0
25 4 47 9 50 5 3 25 -1 44 -9 30 -12 45 -13 88 -3 41 10 53 10 57 0 7 -21 22
-13 22 11 0 31 -26 53 -71 61 -20 3 -44 15 -54 26 -22 24 -62 26 -93 4z"/>
<path d="M4348 3723 c7 -3 16 -2 19 1 4 3 -2 6 -13 5 -11 0 -14 -3 -6 -6z"/>
<path d="M4428 3723 c7 -3 16 -2 19 1 4 3 -2 6 -13 5 -11 0 -14 -3 -6 -6z"/>
<path d="M4355 3700 c3 -5 8 -10 11 -10 2 0 4 5 4 10 0 6 -5 10 -11 10 -5 0
-7 -4 -4 -10z"/>
<path d="M4244 3634 c3 -9 6 -18 6 -20 0 -2 5 -4 10 -4 6 0 10 9 10 20 0 12
-7 20 -16 20 -11 0 -14 -5 -10 -16z"/>
<path d="M4350 3546 c0 -2 7 -6 15 -10 8 -3 15 -1 15 4 0 6 -7 10 -15 10 -8 0
-15 -2 -15 -4z"/>
<path d="M4241 3434 c0 -11 3 -14 6 -6 3 7 2 16 -1 19 -3 4 -6 -2 -5 -13z"/>
<path d="M4240 3385 c0 -8 4 -15 10 -15 5 0 7 7 4 15 -4 8 -8 15 -10 15 -2 0
-4 -7 -4 -15z"/>
<path d="M4631 3312 c-1 -7 10 -62 24 -122 25 -114 41 -207 37 -226 -1 -6 -26
-51 -56 -100 l-53 -89 -119 -5 c-119 -5 -119 -5 -119 -30 l0 -25 310 -3 c346
-4 427 4 475 45 35 29 40 20 8 -14 -37 -39 6 -29 52 13 22 20 40 31 40 25 0
-6 7 -8 17 -4 13 5 15 3 9 -13 -6 -15 -5 -17 5 -6 21 20 31 14 15 -10 -20 -28
-20 -38 -2 -38 8 0 30 24 49 53 69 104 267 440 267 453 0 30 -41 34 -355 34
-249 0 -323 -3 -349 -14 -34 -14 -54 -41 -138 -188 -18 -32 -36 -58 -39 -58
-3 0 -12 33 -18 73 -14 83 -58 268 -60 249z"/>
<path d="M697 3303 c-3 -5 16 -34 43 -65 l48 -57 16 41 c20 51 31 43 27 -20
l-3 -47 26 24 c15 15 22 29 18 35 -72 95 -73 96 -123 96 -26 0 -50 -3 -52 -7z"/>
<path d="M935 3110 c-3 -5 1 -10 10 -10 9 0 13 5 10 10 -3 6 -8 10 -10 10 -2
0 -7 -4 -10 -10z"/>
<path d="M4096 2953 c-38 -21 -64 -39 -58 -41 10 -3 132 66 132 74 0 6 -1 6
-74 -33z"/>
<path d="M2340 2505 c0 -13 39 -15 290 -15 251 0 290 2 290 15 0 13 -39 15
-290 15 -251 0 -290 -2 -290 -15z"/>
<path d="M4104 2474 c-18 -14 -18 -15 4 -4 12 6 22 13 22 15 0 8 -5 6 -26 -11z"/>
<path d="M4033 2429 c-24 -17 -43 -32 -43 -35 0 -3 20 9 45 26 25 17 45 33 45
35 0 7 -2 6 -47 -26z"/>
<path d="M2347 2234 c-8 -8 1 -24 14 -24 5 0 9 7 9 15 0 15 -12 20 -23 9z"/>
<path d="M2426 2233 c-11 -11 -6 -23 9 -23 8 0 15 4 15 9 0 13 -16 22 -24 14z"/>
<path d="M2506 2233 c-11 -11 -6 -23 9 -23 8 0 15 4 15 9 0 13 -16 22 -24 14z"/>
<path d="M2665 2229 c-10 -15 3 -25 16 -12 7 7 7 13 1 17 -6 3 -14 1 -17 -5z"/>
<path d="M2580 2220 c0 -5 4 -10 9 -10 6 0 13 5 16 10 3 6 -1 10 -9 10 -9 0
-16 -4 -16 -10z"/>
<path d="M1422 2021 c2 -7 7 -12 11 -12 12 1 9 15 -3 20 -7 2 -11 -2 -8 -8z"/>
<path d="M2685 1940 l40 -7 -42 -2 -43 -1 0 -55 c0 -48 3 -55 23 -60 12 -3
132 -4 267 -3 l245 3 0 65 0 65 -265 1 c-146 1 -247 -2 -225 -6z m462 -6 c-3
-3 -12 -4 -19 -1 -8 3 -5 6 6 6 11 1 17 -2 13 -5z m-164 -11 c-35 -2 -91 -2
-125 0 -35 2 -7 3 62 3 69 0 97 -1 63 -3z m51 -21 c-7 -4 -13 -16 -15 -26 -4
-20 -5 -20 -194 -16 -15 0 -21 7 -23 25 l-2 25 123 0 c67 0 117 -4 111 -8z"/>
<path d="M5430 1326 c0 -2 7 -7 16 -10 8 -3 12 -2 9 4 -6 10 -25 14 -25 6z"/>
<path d="M5544 1235 c-9 -14 -15 -28 -12 -30 2 -2 12 9 22 25 21 36 13 40 -10
5z"/>
<path d="M4928 1233 c7 -3 16 -2 19 1 4 3 -2 6 -13 5 -11 0 -14 -3 -6 -6z"/>
<path d="M5328 1163 c6 -2 18 -2 25 0 6 3 1 5 -13 5 -14 0 -19 -2 -12 -5z"/>
<path d="M4790 980 c-9 -6 -10 -10 -3 -10 6 0 15 5 18 10 8 12 4 12 -15 0z"/>
<path d="M1273 888 c15 -13 27 -31 27 -40 0 -9 4 -19 9 -22 5 -3 7 -16 4 -29
-4 -18 -3 -19 6 -7 9 12 10 10 6 -11 -6 -24 -4 -25 43 -28 57 -2 66 8 56 67
-6 36 -6 37 -52 37 -26 1 -51 -4 -55 -10 -5 -6 -7 -3 -5 8 2 11 -9 25 -32 38
l-35 21 28 -24z"/>
<path d="M1240 883 c0 -5 11 -13 25 -20 29 -13 33 -6 8 13 -20 15 -33 18 -33
7z"/>
<path d="M1234 816 c1 -19 4 -32 9 -29 9 6 9 35 -1 51 -5 8 -8 -1 -8 -22z"/>
<path d="M1190 821 c0 -6 5 -13 10 -16 6 -3 10 1 10 9 0 9 -4 16 -10 16 -5 0
-10 -4 -10 -9z"/>
<path d="M1666 805 c4 -8 11 -15 16 -15 6 0 5 6 -2 15 -7 8 -14 15 -16 15 -2
0 -1 -7 2 -15z"/>
<path d="M1166 800 c4 -8 9 -22 9 -30 0 -10 13 -15 45 -16 25 -1 32 0 17 3
-20 3 -27 9 -23 20 4 9 1 13 -6 10 -7 -2 -22 3 -32 12 -16 13 -18 13 -10 1z"/>
<path d="M1626 795 c4 -8 8 -15 10 -15 2 0 4 7 4 15 0 8 -4 15 -10 15 -5 0 -7
-7 -4 -15z"/>
<path d="M1050 785 c-10 -12 -8 -16 15 -25 30 -11 78 -13 88 -3 4 3 0 15 -10
25 -20 22 -76 24 -93 3z"/>
<path d="M1275 791 c-6 -11 9 -23 19 -14 9 9 7 23 -3 23 -6 0 -12 -4 -16 -9z"/>
<path d="M1599 776 c13 -32 -6 -36 -32 -6 -13 15 -24 19 -45 14 -90 -21 -18
-65 83 -50 29 5 45 12 45 22 0 17 -16 19 -23 2 -4 -8 -6 -7 -6 3 -1 9 -8 22
-16 29 -14 11 -14 10 -6 -14z"/>
<path d="M1704 779 c-4 -7 -3 -9 4 -5 5 3 13 0 15 -6 4 -9 6 -10 6 -1 1 17
-16 25 -25 12z"/>
<path d="M4498 723 c12 -2 32 -2 45 0 12 2 2 4 -23 4 -25 0 -35 -2 -22 -4z"/>
<path d="M4583 723 c9 -2 25 -2 35 0 9 3 1 5 -18 5 -19 0 -27 -2 -17 -5z"/>
</g>
</svg>
